<svg id="Layer_1" data-name="Layer 1" xmlns="http://www.w3.org/2000/svg" viewBox="0 0 441.58 400.85"><defs><style>.cls-11{fill:#b5b5c3;}</style></defs><title>chat</title><path class="cls-11" d="M439.3,317.53c4.54-8.09,5.39-17.07,5.43-26q.3-63.28,0-126.56c-.05-13.21-4.16-19.84-15.33-20.65-10.11-.74-11.18-5.45-10.25-13.31a33.11,33.11,0,0,0-.34-5.94c.09-1,.25-2,.28-3,.52-18.07.54-18.17,18.13-14.35,9.73,2.12,19.06,5.27,27.34,11.17,9.78,7,13.41,16.79,14.21,28.16q1.5,54.85,3,109.7c.59,22.94,1.46,45.93-6.49,68.05C465.11,353.2,442,370,411.84,371.16c-3.32.12-6.65.11-10,.12-20.45.07-20.47.07-20.63,21-.08,10.64,0,21.29-.16,31.94-.05,3.64,0,7.43-.91,10.9-2.2,8.3-3.92,17.52-13.75,20.34-9.29,2.66-15.43-3.66-21.83-9.1-24.54-20.87-45.9-45-68.75-67.59-5.71-5.64-11.32-8.15-19.26-7.61-18.17,1.23-36.46-1.7-54.62,1.58-3,.54-6.69,1.3-8.69-.92q16-16.87,31.87-33.6c5.78-6.09,13.43-1.52,19.92-3.51,7.61.09,15.3,1,22.79.1,11-1.28,18.57,3.1,25.81,10.88,12.6,13.53,26,26.29,39.12,39.37a48.07,48.07,0,0,0,12,11.7c-.35-9.83.76-18-1.17-26.2,0-8.93.36-17.89-.26-26.78-.5-7,1.79-9.06,8.81-8.91,19.58.43,39.17.14,58.76,0C423.81,334.85,433.8,329.82,439.3,317.53Z" transform="translate(-40.56 -55.24)"/><path class="cls-11" d="M400.8,121.15c-.67-4.94-1.32-9.89-2-14.83-3.92-27.14-18.19-44.13-41.6-48.78a113.1,113.1,0,0,0-21.79-2.2q-110.39-.21-220.76,0c-40.06,0-59.15,14-71.32,51.85l-.81,6q-.58,6-1.18,12-.37,47.9-.74,95.78c-.06,11.32.29,22.59,3.15,33.67,7.47,28.88,26.9,44.28,55.51,48.59,8.63,1.31,12.24,3.72,12,13.34-.67,28.26-.14,56.55-.07,84.83,0,4-.52,8.55,3.36,10.9,4.37,2.65,8.4-.06,11.83-2.75,6.26-4.93,12.62-9.8,18.38-15.28,27.71-26.4,54-54.2,79.63-82.59,4.44-4.91,9.08-6.63,15.57-6.74,32.57-.6,65.17-1.07,97.69-2.76,38.38-2,56-25.48,61.15-62.54.41-2.92,1-5.82,1.51-8.73q.29-27.91.56-55.83Q400.83,148.11,400.8,121.15ZM141.49,202.7c-13.09.17-25.05-11.24-25.43-24.25A24.9,24.9,0,0,1,141,152.92c14-.17,25.62,11.17,25.51,25C166.43,191,154.8,202.53,141.49,202.7Zm78.26,0a25.13,25.13,0,0,1-24.59-24.88c-.15-14.11,10.94-25,25.27-24.9A24.46,24.46,0,0,1,245,177.5,25.09,25.09,0,0,1,219.75,202.7Zm79.36,0c-13.37-.18-24.31-11.47-24.27-25.06.05-14.49,10.68-24.89,25.3-24.71a24.81,24.81,0,0,1,24.55,24.75C324.71,191.43,313,202.88,299.11,202.69Z" transform="translate(-40.56 -55.24)"/></svg>