<svg id="Layer_1" data-name="Layer 1" xmlns="http://www.w3.org/2000/svg" viewBox="0 0 489.61 511.9"><defs><style>.cls-11{fill:#b5b5c3;}</style></defs><title>Discount</title><path class="cls-11" d="M202.89,194.9c.19,12.17-8.68,21.49-20.77,21.83s-21.73-8.49-22.19-20.42c-.48-12.68,9-22.66,21.48-22.66a21.21,21.21,0,0,1,21.48,20.92Z" transform="translate(0.04 0)"/><path class="cls-11" d="M483.64,308.74c-8.77-14.42-17.73-28.82-27.79-42.34-6.24-8.38-5.61-14.47.25-22.49,8.85-12.1,16.63-25,24.68-37.67,14.94-23.53,9.77-39.59-16-49.59-14.4-5.6-28.71-11.52-43.4-16.26-9.66-3.12-13-8.5-13-18.5,0-16-1.4-31.92-2.41-47.87-1.51-23.76-16-34.46-39.18-28.61-16.35,4.13-32.74,8.28-48.75,13.52-8.22,2.69-12.93.69-17.87-5.81-9.9-13.12-20.36-25.76-30.91-38.4-16.1-19.38-33.34-19.66-49.45-.63-10,11.83-20,23.74-29,36.34-6.3,8.84-12.38,12-23.48,8.34-18.2-6-36.71-11.37-53.72-13.79-18,.09-28.34,8.06-30.08,23.88-2,18.19-2.74,36.55-3.21,54.85-.24,9.21-3.11,14.35-12.51,17.29C52.22,146,37,152.29,21.89,158.52c-22.72,9.35-27.91,25.26-15,46,8.93,14.33,18.05,28.57,27.75,42.39,4.74,6.76,5,12,.2,18.94C25.18,279.68,16.23,294,7.31,308.37c-12.82,20.62-7.49,37.08,15,46C38.4,360.78,54.66,366.79,71,372.68c6.47,2.35,9.8,5.95,10,13.28.39,16,1.88,31.91,2.37,47.87.89,28.54,15.82,39.27,43.78,31.3,14.42-4.1,29.19-7.13,43.34-12,9.35-3.2,14.59-.5,20.07,6.86,9.53,12.79,19.8,25.06,30.06,37.3,16.21,19.35,33.34,19.51,49.4.31,10.85-13,21.32-26.26,31.65-39.64,4.5-5.83,8.7-8.14,16.65-5.57,16,5.19,32.54,8.85,48.9,13,23.67,6,37.58-3.3,39.8-27.49,1.58-17.3,2.06-34.72,2.58-52.1.23-7.58,3.11-11.76,10.51-14.37,16.78-5.9,33.41-12.31,49.76-19.3C489.86,343.67,495,327.4,483.64,308.74ZM128.81,194.44c.21-28.81,23.2-51.39,52.31-51.38a51.83,51.83,0,0,1,52.28,51.36v.15c.22,29.29-23.37,53.22-52.42,53.18S128.61,224,128.81,194.44ZM189.9,342.27a46.34,46.34,0,0,1-6.79,7.07c-5.15,4-10.68,3.68-15.43-.56-4.58-4.08-6.45-9.37-3-15.15a71.25,71.25,0,0,1,6.8-8.95q63.86-77,127.77-154c3.88-4.68,7.39-9.89,14.33-10.3,8.93-.16,15.5,9.52,11.67,17.78-1.54,3.32-4.26,6.14-6.65,9q-64.32,77.61-128.68,155.11Zm124,10.16a51.8,51.8,0,0,1-52.21-51.37v-.19a52.29,52.29,0,0,1,104.58-1.23c.24,29.67-22.73,52.83-52.33,52.79Z" transform="translate(0.04 0)"/><path class="cls-11" d="M335.2,299.48a21.5,21.5,0,0,1-43,.77c0-12.18,8.92-21.33,21.06-21.51S334.89,287.53,335.2,299.48Z" transform="translate(0.04 0)"/></svg>