<svg id="Layer_1" data-name="Layer 1" xmlns="http://www.w3.org/2000/svg" viewBox="0 0 500.3 445.47"><defs><style>.cls-11{fill:#b5b5c3;}</style></defs><title>edit</title><path class="cls-11" d="M386.44,199.43c14.58,0,29.15-.06,43.72,0,9.66.06,15.5,5.21,15.5,13.39s-5.77,13.8-15.23,13.84q-44.4.21-88.8,0c-9.42-.05-15.32-5.74-15.17-13.9s5.84-13.24,15.58-13.3c14.8-.09,29.6,0,44.4,0Z" transform="translate(-3 -43.53)"/><path class="cls-11" d="M385.28,252.08c14.57,0,29.15-.06,43.71,0,9.88.06,15.73,4.94,15.91,13,.19,8.54-5.6,14.15-15.53,14.2q-44.06.21-88.11,0c-9.69,0-15.52-5.38-15.57-13.44-.05-8.55,5.67-13.61,15.88-13.69,14.57-.11,29.14,0,43.71,0Z" transform="translate(-3 -43.53)"/><path class="cls-11" d="M385,333.59c-14.57,0-29.14.09-43.71,0-9.82-.09-15.52-5.07-15.63-13.25s5.61-13.77,15.17-13.83q44.4-.28,88.78-.05c9.55,0,15.38,5.62,15.28,13.75s-5.79,13.33-15.5,13.41c-14.8.13-29.59,0-44.39,0Z" transform="translate(-3 -43.53)"/><path class="cls-11" d="M503.29,87.62a51.37,51.37,0,0,0-1.85-14.18c-5.32-18.69-21.32-29.85-43.14-29.86q-183.65-.06-367.31,0C64.68,43.54,47,61.41,47,88q0,128.24.09,256.48c0,1.8-1.07,4-.64,4.33,10-9.15,19.65-18.15,29.51-26.93,3.68-3.29,5-6.91,4.94-11.91-.19-51.75,0-103.51-.21-155.26,0-4.62.93-6.14,5.89-6.13q188.1.21,376.2,0c5.38,0,6.71,1.35,6.7,6.73q-.28,111.14-.13,222.28c0,9.94-1.84,11.76-12,11.76q-130.3,0-260.61.07c-2.4,0-5.13-1-7.18,1.08-10.35,10.43-20.65,20.91-32,32.43,2.8.15,4.08.28,5.36.28q148.77,0,297.54-.07c25.36,0,42.71-17.79,42.74-43.43Q503.4,233.64,503.29,87.62ZM466.84,117.1c-37.16-.24-74.33-.13-111.49-.14h-77.3c-62,0-124-.11-186,.17-6.49,0-8.12-1.88-7.62-8,.53-6.34.06-12.76.1-19.14,0-8.44,2.46-10.86,11-10.86H460.78c10.5,0,12.28,1.81,12.29,12.29,0,6.39-.35,12.8.11,19.15C473.55,115.72,472.06,117.14,466.84,117.1Z" transform="translate(-3 -43.53)"/><path class="cls-11" d="M291.44,258.36c-3.51-1.89-6.49,0-9.44,2q-24.31,16.47-48.73,32.81c-9,6.07-15.54,6.18-24.36-.58a63.65,63.65,0,0,1-23-34.6c-2.49-9.16,0-15.17,7.9-20.52q24.9-16.81,49.87-33.57c3.09-2.07,6.28-4,5.57-8.49s-4.48-5.34-7.94-6.42c-10.27-3.21-20.73-5.29-31.56-4.92A92.88,92.88,0,0,0,192,185.37c-36.41,5.78-62,30.33-69.21,66.14-2.41,12-.59,24.09-.84,36.13-.26,12.79-4,23.92-12.69,33.64C98.77,333,88,344.42,77.05,355.73c-20.6,21.3-41.32,42.5-61.81,63.92C-1.11,436.74-1,461.74,15.16,477.27c16.56,15.9,42.12,15.87,57.42-1.52,30.91-35.14,65.63-66.55,97.34-100.87a53.87,53.87,0,0,1,33.18-17.24c11.92-1.69,24.21-1.94,35.36-7,35.72-16.18,52.41-45.38,56.12-83.24C294.92,263.89,295.06,260.3,291.44,258.36ZM46.61,466.82A16,16,0,1,1,62.67,451,15.88,15.88,0,0,1,46.61,466.82Z" transform="translate(-3 -43.53)"/></svg>