<svg id="Layer_1" data-name="Layer 1" xmlns="http://www.w3.org/2000/svg" viewBox="0 0 500.89 374.41"><defs><style>.cls-11{fill:#b5b5c3;}</style></defs><title>pay-list</title><path class="cls-11" d="M70.13,366.42l-3.79-1.6c-10.8-5.11-20.49-11.91-29.75-19.37h0a141.63,141.63,0,0,1-24.28-31.56l.07-.32-.28-.17-.91-1.65L8,304.41l-1-3-3-9a1.45,1.45,0,0,0-.81-1.63,6.11,6.11,0,0,0-.58-4.45Q1.5,278.93.34,271.55l-.34-15q1-7.45,2-14.93c.32-2.45,1.89-4.7,1.21-7.32A1.5,1.5,0,0,0,4,232.66q.75-2.4,1.51-4.82c.51-1.61,1.67-3.28,1.59-5.2l4.23-9.47,9.87-16.39,13.08-15,1.87-1.87c10-7.89,20.17-15.36,31.92-20.36l13-4.83c2.55.12,4.83-.94,7.2-1.59l2.81-.52a2.11,2.11,0,0,0,2.18-.48l2.81-.52,15-1L122,151a129.65,129.65,0,0,1,34,8.61l14,7.11a.76.76,0,0,0,.73.47l13.65,9.69,2.45,2.41,1,.49L190,182l8.78,9.63,6,7.94L212,211.64l2.88,6q1.65,4.49,3.28,9l4,14.93,1.65,9.94v1.12l.33,3.94c-.21,6.64.06,13.31-1,19.92l-1.57,9.81-4.44,15.13c-.68,2-2.31,3.67-2.25,6l-4.47,8.92q-4.27,6.75-8.56,13.48l-3,3.62L189,344.18c-1.65,1.17-3.41,2.23-4.53,4L171,357.74l-5.51,3.48-9.38,4.24-16.18,5.43-13.8,2.52-15,1-12.87-.17c-5.48-2.32-11.4-2.67-17.12-3.94a27.32,27.32,0,0,0-9.33-3.1A1.42,1.42,0,0,0,70.13,366.42ZM111,263.92l-7.49,7.48a45.36,45.36,0,0,0-7.5,7.48c-6.78,6-6.77,6-13.31-.35a17.92,17.92,0,0,0-1.52-1.21l-5.9-5.86-9.09-9.09-5.88-5.89c-4.9-5.52-4.9-5.52-9.52-.25l.07-.06-15.06,15,.06-.07c-3.63,2-2.62,3.79.26,5.49L46,286.55l5.1,5.1L61,301.52l5.11,5L76,316.42l5.09,5.1,8.53,9,7.57-8.1,5-4.95a78.73,78.73,0,0,0,10-10l5-5a78.73,78.73,0,0,0,10-10l5-4.95a80.06,80.06,0,0,0,10-10l5-5a77.44,77.44,0,0,0,10-10l5-4.95a78.73,78.73,0,0,0,10-10l5-5a77.44,77.44,0,0,0,10-10c4-2.37,4.37-4.17.49-7.78-5-4.63-10.18-9.15-14.71-14.26-4.19-4.72-4-4.89-8.44-.28a12.53,12.53,0,0,0-.91,1.16,44.63,44.63,0,0,0-7.56,7.55l-7.51,7.5A42.59,42.59,0,0,0,141,234l-7.52,7.5A44,44,0,0,0,126,249l-7.49,7.49A44.84,44.84,0,0,0,111,263.92Z" transform="translate(0 0)"/><path class="cls-11" d="M489.58,7.66l3.56,3.55a33.61,33.61,0,0,1,7,14.81c1.14,5,.2,10,.75,15V280.55c-.41,5,.26,10-1,14.93a35,35,0,0,1-15.12,20c-.55.31-1.1.62-1.66.92L474.67,319c-4.91,1.15-9.92,0-14.86.62H249.94c-3.77.32-5.94-.81-5-5.16a16.23,16.23,0,0,0-.13-4V295.48c.95-3.19-2.35-9.06,5.14-8.13H459.77c9.16.4,9.16.4,8.85-6.83V128.82q.18-1-.84-.84H55.1c-1.68,0-2-1-2-2.48,0-3.21-.09-6.42-.15-9.64V41.06q.27-7.41.56-14.81,1.7-4.77,3.4-9.55l2.29-4A42.93,42.93,0,0,1,70.27,3.6L77.08,1A1.46,1.46,0,0,0,78.77.21L85.12,0H459.77l14.81.55A37.2,37.2,0,0,1,489.58,7.66ZM468.58,63V33q.18-1-.84-.84H100c-2.16,0-4.32-.13-6.48-.13-8.73,0-8.73,0-8.36,9v15c-.33,8-.33,8,7.36,8,2.49,0,5-.08,7.48-.12H467.77c.67,0,1-.23.84-.91Z" transform="translate(0 0)"/></svg>