<svg id="Layer_1" data-name="Layer 1" xmlns="http://www.w3.org/2000/svg" viewBox="0 0 359.33 503"><defs><style>.cls-11{fill:#b5b5c3;}</style></defs><title>sms</title><path class="cls-11" d="M361.34,122.56c2.53-.09,3.66-.45,3.64-3.38-.16-22.42.41-44.86-.37-67.26-.76-21.65-11.68-35.46-30.28-40.64C327.5,9.37,320.48,9,313.44,9q-81.51,0-163,0a130,130,0,0,0-13.09.68c-20,2.07-33.08,14-37.16,33.54-1.37,6.58-1.45,13.21-1.46,19.84q0,98.63,0,197.26c0,47.88-.08,95.77,0,143.66.05,22.23-.8,44.48.48,66.68s13.25,35.58,35,40.06A80.88,80.88,0,0,0,150.68,512q80.65,0,161.33,0c4.56,0,9.12-.24,13.66-.65,19.87-1.81,33.18-13.27,37.61-32.4a79.67,79.67,0,0,0,1.66-18.12q-.06-65.26,0-130.55c0-12.59,0-12.35-12.68-12.66-4.65-.11-5.57,1.36-5.55,5.72.17,37.81,0,75.63.2,113.44,0,4.21-.92,5.31-5.23,5.3q-110.33-.23-220.63,0c-4.27,0-5.73-.81-5.72-5.49q.22-171,0-342.06c0-5.07,1.25-6.21,6.23-6.19,58.34.19,116.68.13,175,.13,15.39,0,30.79.09,46.18-.07,3.22,0,4.28.85,4.12,4.1-.25,5.31-.06,10.64-.07,16C346.77,123.12,346.77,123.06,361.34,122.56ZM274.78,58.87c-14.24.06-28.48,0-42.72,0-14.43,0-28.86,0-43.29,0-7.91,0-12.24-3.79-12.14-10.32.09-6.2,4.43-10,12-10.06q43-.12,86,0c7.73,0,12.53,4,12.59,10.19S282.52,58.84,274.78,58.87Z" transform="translate(-98.48 -9)"/><path class="cls-11" d="M457.74,166.11c-.05-16.92-10.11-26.74-27.05-26.76q-45.85,0-91.73,0t-91.73,0c-17.78,0-27.5,9.65-27.53,27.36q-.09,52.41,0,104.83c0,16.79,9.3,26.47,26.14,27.13a7.23,7.23,0,0,1,6.46,3.52c6.33,9.22,12.84,18.32,19.36,27.42,3.82,5.34,6.73,5.39,10.53.12,6.32-8.77,12.68-17.52,18.67-26.51,2.26-3.4,4.73-4.57,8.79-4.55q60.1.22,120.22.08c18,0,27.88-9.95,27.9-27.82Q457.83,218.53,457.74,166.11ZM291.52,234c-1.41,11.51-10.2,19-23.38,19.79-1.32.08-2.65,0-4,0-10.7,0-19.83-3-25-13.37-1.37-2.73-2.44-5.65-1.6-8.75a7.22,7.22,0,0,1,6.3-5.75c4.58-.64,6.93,2,8.8,5.66,4.23,8.25,6.84,9.75,14.46,8.53,3.82-.61,7.14-2.15,7.57-6.42s-3.1-5.68-6.42-6.73c-5.77-1.83-11.7-3.19-17.35-5.32-8.19-3.09-12.49-9.43-12.43-17.25.07-8,4.78-14.68,13-17.5,8.87-3,17.89-3.23,26.62.71,5,2.27,8.84,6,10.19,11.51,1.09,4.42.25,8.39-4.5,10.41s-7.49-.44-9.85-4.17c-4.36-6.9-7.73-8.61-13.69-7.06-2.65.68-5.44,1.71-5.63,4.81-.18,2.91,2.45,4.13,4.82,4.86,4.52,1.39,9.14,2.44,13.68,3.78C286.64,215.71,292.83,223.27,291.52,234Zm77.09,11.67c0,4.81-2.43,7.93-7.57,8.19-4.72.23-7.8-2.67-8-8.31-.29-7.37-.07-14.75-.07-22.13l-1.29,0c-2,7.44-4,14.89-5.9,22.34-1.28,4.91-3.94,8.12-9.45,8.1s-8.15-3.39-9.45-8.19c-2.12-7.8-4.12-15.62-7.16-23.31,0,7.22.1,14.45,0,21.67-.12,6.65-2.67,9.72-7.76,9.77s-8-3-8-9.56q-.21-24.49,0-49c.07-6.53,2.44-8.71,8.94-9.4,11.58-1.21,13.74.29,16.77,11.65a198.83,198.83,0,0,0,7.19,22.94l6.39-23.73c2.74-10.22,10.76-14.08,20.72-10a7,7,0,0,1,4.68,7.09C368.64,211.12,368.7,228.4,368.61,245.68Zm57.21,4.14a28.35,28.35,0,0,1-16,4.08c-10.5.09-19-2.27-24.78-10.65a16,16,0,0,1-3.19-10.68,6.74,6.74,0,0,1,5-6.27c3.08-1,6.1-.69,8.17,2.21a36,36,0,0,1,2.82,4.9c3.32,6.56,10,9,16.67,5.92,2.58-1.18,4.52-3,4.61-6s-2.05-4.89-4.68-5.76c-6.47-2.13-13.16-3.66-19.5-6.09-8.36-3.21-12.21-9.57-11.89-18.11.24-6.43,3.19-11.49,8.69-14.44,10.51-5.66,21.42-5.91,32.18-.55a16.44,16.44,0,0,1,8.64,10.12c1.54,5-.05,9.14-4.3,11-4.65,2-7.48-.29-9.86-4.08-4.58-7.3-9-9.12-15.32-6.6-2,.81-3.85,1.85-4,4.29s1.81,3.77,3.75,4.44c4.11,1.42,8.35,2.46,12.51,3.73a79.64,79.64,0,0,1,8.59,2.92c6.92,3,11.4,7.92,11.86,15.91C436.28,238.66,433.1,245.31,425.82,249.82Z" transform="translate(-98.48 -9)"/></svg>