<svg id="Layer_1" data-name="Layer 1" xmlns="http://www.w3.org/2000/svg" viewBox="0 0 497 307.92"><defs><style>.cls-11{fill:#b5b5c3;}</style></defs><title>user</title><path class="cls-11" d="M257.07,409.74c-42.39,0-84.79-.09-127.18.11-5.71,0-6.42-1.14-5-6.7,5.82-23.54,14.62-45.57,29.29-65.13a141.67,141.67,0,0,1,55.92-44.89,7.89,7.89,0,0,1,7.27.41c28.07,12.76,55.88,12.67,83.28-2.26,3.81-2.08,7-1.43,10.64.22,28.92,13.37,49.48,35,63.66,63.3a189.34,189.34,0,0,1,15.94,48c1.09,5.68-.52,6.86-5.84,6.86-42.66-.18-85.29-.11-128-.11Z" transform="translate(-8 -101.94)"/><path class="cls-11" d="M257.48,287.29c-37.51.53-69-27.6-69.19-67.67-.17-38.93,30-67.61,68.3-68.06,37.38-.43,69.25,30,69,66.85C325.28,257.9,295.72,287.18,257.48,287.29Z" transform="translate(-8 -101.94)"/><path class="cls-11" d="M66.18,360.65c-17.14,0-34.39-.15-51.57.09-5.83,0-7.54-1.9-6.15-7.54,11-44.31,33.37-80.44,73.91-103.66,3.68-2.09,7.61-3.78,11.27-5.83,2.84-1.57,5.31-.83,8,.5,18.84,9.42,38.66,11.14,59.08,7a91.46,91.46,0,0,0,13.43-4.25c3-1.15,5-.56,6,2.53a66.37,66.37,0,0,0,17.5,27c4.55,4.45,2.45,6.31-1.71,8.28-20,9.4-36,23.81-49.79,40.66a131.14,131.14,0,0,0-18.69,29c-2,4.57-4.74,6.2-9.67,6.12-17.14-.25-34.38-.1-51.59-.1Z" transform="translate(-8 -101.94)"/><path class="cls-11" d="M448.46,360.32c-16.5,0-33-.14-49.49,0a8,8,0,0,1-8.58-5.44c-15-33.23-37.6-59.41-71.21-75-3.69-1.71-3.26-2.95-1-5.51,6-6.66,11.44-13.72,14.42-22.37,1.51-4.35,3.86-5.73,8.57-3.9,20.66,8.15,41.31,6.53,61.7-.86.87-.32,2-.3,2.68-.86,12.1-10.29,22.65-3.43,33.14,3,21.84,13.42,37.55,32.24,49.31,54.84a180.45,180.45,0,0,1,16.3,47.28c1.58,7.7.83,8.7-7,8.7H448.53Z" transform="translate(-8 -101.94)"/><path class="cls-11" d="M143,238.49c-33.06,0-56.94-17.39-68.24-48-8.76-23.78.44-54.57,21.74-72.69,36.66-31.18,95.42-14,110,32,1.35,4.25-1.16,5.51-3.33,7.4a80.62,80.62,0,0,0-27.54,47.06,74,74,0,0,0-.72,19.72c.38,4.59-1.49,6.63-5.43,8.57A69.66,69.66,0,0,1,143,238.49Z" transform="translate(-8 -101.94)"/><path class="cls-11" d="M339.42,223.2c.14-29.55-10.52-51.42-31.47-68.12-3.42-2.73-3.63-5.15-2.27-8.42,11.39-27,31.87-42.85,60.82-44.57,27.81-1.71,49.84,10.53,63.83,35,21.94,38.44.87,88.6-41.31,99.08a72,72,0,0,1-37.7-.14C339.75,232.75,339.25,232.39,339.42,223.2Z" transform="translate(-8 -101.94)"/></svg>