<svg id="Layer_1" data-name="Layer 1" xmlns="http://www.w3.org/2000/svg" viewBox="0 0 566.97 565.82"><defs><style>.cls-1{fill:#fff;}.cls-2{fill:#ec1e27;}.cls-3{fill:#252223;}</style></defs><circle class="cls-1" cx="284.06" cy="282.91" r="282.91"/><path class="cls-2" d="M86,322.25c0-4.58-1.34-9.77.39-13.56,1.65-3.62,6.55-5.7,9.93-8.57,19.39-16.45,36.58-35,52.91-54.46,4.23-5,8.43-10.08,12.73-15.06,8.81-10.23,24.9-13.92,38.8-9,12.68,4.52,20.35,15.35,20.55,29.83.12,9.5-.22,19-.65,28.52-.32,7-5.78,13.53-12.5,15.48a64.94,64.94,0,0,1-18.1,2.16c-5.4,0-10.8,0-16.19,0s-8-2.2-9.06-7.47c-1.21-5.93-.62-11.93-.54-17.91,0-2.1,1.37-1.94,2.93-1.89,10.19.31,20.37,1.29,30.58,1a43.54,43.54,0,0,0,5.6-.39c4.7-.73,6-2.92,4.76-7.72-2.56-9.86-15.13-17-25.47-14.4a26.47,26.47,0,0,0-12.27,7.27c-13.59,13.34-25.61,28.09-37.95,42.55-2.06,2.41-4.09,4.83-6.13,7.25-.52.62-1.41,1.22-1.14,2.07.39,1.22,1.62.65,2.45.66q26.76.4,53.52.72,53.69.72,107.36,1.47,41.36.61,82.72,1.38c30.74.54,61.48,1,92.21,1.69,10.3.22,20.33,2,29.39,7.31,9.39,5.53,14.44,14.12,17,24.42,3.07,12.13,2.14,24.49,2.19,36.79a2.28,2.28,0,0,1-.51,1.58c-1.62,1.47-7.81,0-8.61-2.08a17.35,17.35,0,0,1-1.31-7.24c1.09-17.87-13.22-28.76-27.27-30.84-13.42-2-26.93-1.42-40.41-1.69-32.38-.67-64.76-1-97.14-1.53-28.86-.45-57.73-.73-86.58-1.48-25.12-.64-50.23-.42-75.34-.14-20.3.23-40.6.19-60.9.15-8.2,0-16.4-.66-24.61-.87-2.43-.06-3.33-.95-3.25-3.36.12-4.23,0-8.46,0-12.69Z" transform="translate(-15.64 -137.02)"/><path class="cls-3" d="M350.73,397.3a235.75,235.75,0,0,0,25.73,24.25c20.72,17.07,41.66,33.88,62.31,51a83.64,83.64,0,0,1,15.57,17.61c2.44,3.61,3.14,7.8,3.51,12A87.37,87.37,0,0,1,454.07,537,23,23,0,0,1,447.31,547c-22.35,20.47-47.66,36.79-73.23,52.77-12.43,7.76-25.24,14.88-37.33,23.19a13.11,13.11,0,0,1-3.47,1.68c-3.35,1.05-5.56-.48-5.16-3.91.91-7.71.17-15.48,1.16-23.18.48-3.72,1.85-6.23,5.31-8.27,30.48-18,61.31-35.41,90.6-55.36a92.44,92.44,0,0,0,11.14-8.58c3.6-3.34,3.76-3.72.93-7.84a108.41,108.41,0,0,0-17.74-19.93c-15.78-13.87-33-25.91-49.21-39.26-9.61-7.93-18.89-16.17-26.9-25.77-6.88-8.25-11.05-17.28-9.9-28.39.65-6.17.53-12.43,2-18.53,2.89-12.32,11-19,23.75-19.48,18.3-.72,36.6,0,54.9,0,6.8,0,13.6.33,20.41.31,2.35,0,3,.78,2.91,3.07-.43,8.44-.84,16.89-1,25.34,0,2.8-1.53,2.55-3.36,2.55q-38.91-.11-77.8-.17Z" transform="translate(-15.64 -137.02)"/><path class="cls-3" d="M247.2,552.34a93,93,0,0,0,16.61-14.28,3.67,3.67,0,0,0,.92-2.56c.18-5.86.38-11.73.68-17.6.09-1.81-.17-2.68-2.38-2.72-15.13-.24-30.26-.86-45.4-.55a51.34,51.34,0,0,0-12.14,1.74c-13,3.45-19.69,12.46-21.76,25.28a87.15,87.15,0,0,0,0,28.78c2.3,13.4,11.49,20.74,23.78,24.73,11.76,3.81,22.9,1.69,33.63-3.86,13.6-7,25.87-16.07,38-25.25,9.83-7.41,19.72-14.73,29.61-22.06.72-.53,1.49-1.59,2.42-1.17,1.21.55.54,1.9.53,2.86-.09,8.92-.31,17.84-.35,26.76a4.24,4.24,0,0,1-2,3.72c-14.53,11.31-28.91,22.79-43.48,34-10.86,8.38-23.33,12.7-37,13.89-30.81,2.69-51.59-16.77-60.91-39.4-3-7.18-2.77-14.65-2.5-22.17.31-8.68.43-17.36.79-26,.27-6.44.5-12.88,2-19.19,3.92-16.31,14.34-25.84,30.48-29.43a86.43,86.43,0,0,1,19.9-2q28.68.33,57.36.84c4.74.08,4.75.17,4.76,4.89,0,12.92,0,25.84.11,38.76.07,9.61-4.31,16.74-11.78,22.43-8.58,6.53-17.05,13.21-25.47,19.94-8.85,7.06-24.44,7.07-32.35-.13-9.24-8.42-11.37-22.55-4.85-32.31,8.44-12.65,25.69-14.53,35.88-3.94,3.29,3.42,4.42,7.63,4.78,12.15C247.27,549.49,247.2,550.51,247.2,552.34Z" transform="translate(-15.64 -137.02)"/><path class="cls-2" d="M581.47,427.53a276.71,276.71,0,0,1-58.3,165.32c-46.8,60.62-108.87,95.38-184.34,106.67-6.73,1-13.51,1.61-20.3,2.11-2.17.15-3.07-.2-3-2.71.08-6.9,0-6.73,6.72-7.29a261.16,261.16,0,0,0,87.69-22.76q82.71-37.82,126.92-117.49a264.46,264.46,0,0,0,32.41-108.75c8.32-107.43-46.13-208.45-140.35-260.17a265.19,265.19,0,0,0-101-31.64c-1.4-.14-2.79-.41-4.19-.52-8.5-.64-8.43-.63-8.22-9.35,0-2,.59-2.58,2.63-2.43a297.42,297.42,0,0,1,70.16,14c33.49,10.91,63.6,28.05,90.7,50.51A278.1,278.1,0,0,1,560.79,314.9C574.46,348.87,581.33,384.31,581.47,427.53Z" transform="translate(-15.64 -137.02)"/><path class="cls-3" d="M15.64,421.28c1.22-64.3,19.63-122,58.58-172.44q62.09-80.34,161.25-103.6a330.06,330.06,0,0,1,44.3-6.89c2.2-.2,3,.39,2.72,2.6a23.93,23.93,0,0,0,0,3.17c0,5.84,0,5.68-5.67,6.11-34.45,2.61-67.33,11.36-98.09,27C107.94,213.35,60.8,269.5,37.87,345.73,29,375.11,25.94,405.27,27.64,435.8A271.62,271.62,0,0,0,212.16,678.47a254.05,254.05,0,0,0,66.53,13.22c3.76.22,3.94,1.87,3.83,4.79-.19,5.27-.06,5.32-5.16,4.91C159.94,692,63.62,613,29.47,506.82a280.75,280.75,0,0,1-12.68-63.5C16.17,435.7,16.31,428.07,15.64,421.28Z" transform="translate(-15.64 -137.02)"/><path class="cls-2" d="M233.58,427.32c6.8.23,13.6.63,20.4,0,5.41-.53,7.94-3.21,6.61-8.38-2.21-8.57-6.39-16.15-15.18-19.47-8.48-3.21-16.07-.42-23,4.91-6.4,4.93-9.17,12.35-13.14,18.94-15.33,25.42-33.26,48.63-56.85,67-15.24,11.86-31.95,20.57-51.47,22.77-3.13.35-6.32.16-9.48.3-1.81.08-2.43-.69-2.51-2.48-.39-8.2-.88-16.39-1.38-24.59-.09-1.48,0-2.55,1.92-2.45,21.86,1.14,39.41-9.09,55.69-21.89,24.24-19.05,44.25-41.89,59.1-69.06,1.85-3.39,3.25-7,5.18-10.39,6.59-11.49,16.12-19,29.79-18.39,14.19.64,24.3,8.52,30.68,21,5.51,10.77,5.62,22.4,4.52,34.1-.61,6.55-1.3,13.08-1.3,19.67,0,9.42-5.58,16.85-14.67,19.05-11.79,2.86-23.74,2.48-35.64.84-4.31-.59-7.18-3.37-8.45-7.55-2.31-7.58-1.56-15.35-1.26-23.08.08-2,1.59-1.7,2.83-1.65C221.86,426.76,227.72,427.05,233.58,427.32Z" transform="translate(-15.64 -137.02)"/><path class="cls-3" d="M469.8,501.94c.44-21.95.25-43.9,1.34-65.84a83.76,83.76,0,0,0-2-24.13c-2.47-10.16-7.4-14.2-17.85-14.44-2.69-.06-3.61-.71-3.5-3.56.31-8.21.35-16.44.35-24.66,0-2.26.64-3.13,3-3,4.8.24,9.64-.06,14.42.36,13.5,1.17,21.54,9.23,26.12,21.41a87.92,87.92,0,0,1,4.8,23c1.44,15.6.13,31.17-.43,46.76s-.68,31.45-1.17,47.17c-.66,21.13-.22,42.25.19,63.37A7.32,7.32,0,0,1,494,573c-6.71,9.6-13.36,19.26-20,28.89-.38.55-.5,1.48-1.37,1.42-1.13-.07-1-1.2-1.16-1.89-1.88-6.75-1.77-13.73-1.94-20.62C468.85,554.53,469.11,528.23,469.8,501.94Z" transform="translate(-15.64 -137.02)"/><path class="cls-3" d="M392.93,521c.23,2.3-1,3.56-1.84,4.83a139.31,139.31,0,0,1-15.36,17.83c-6.89,7.06-15.21,8.41-24.3,6.8C332.05,547,317.65,536.24,306.85,520c-13.19-19.78-18-41.43-15.69-65a260.22,260.22,0,0,0,1.14-27.79q-.18-30-.5-59.91c0-2.17.23-3.14,2.81-3,6.78.42,13.59.63,20.39.65,2.17,0,2.75.67,2.94,2.69.95,10.57.28,21.13-.28,31.67-1.2,22.76-1.35,45.52-1.49,68.3-.21,34.15,32.42,58.7,55.47,58.81A39.59,39.59,0,0,0,392.93,521Z" transform="translate(-15.64 -137.02)"/><path class="cls-2" d="M120.19,353.18c9,0,18.07-.06,27.1,0,15.17.11,22.61,6.16,24.93,21.16,1.46,9.38,2.21,18.92.05,28.36-2.72,11.87-8.94,21.94-16.84,30.93-14.27,16.25-31.34,28.17-52.87,32.78a63,63,0,0,1-12.94,1.08c-2,0-2.65-.79-2.66-2.7-.08-8.57-.24-17.15-.37-25.72,0-1.37,0-2.49,1.9-2.63,15.76-1.13,29.66-7.51,42.78-15.77a176.8,176.8,0,0,0,19.45-13.9c6.26-5.27,8.92-12.09,9.22-20.13.11-2.88-.59-3.89-3.63-3.76-20.51.87-41,.39-61.57.54-6.93,0-6.95,0-7.06-6.83s-.08-13.86-.34-20.78c-.09-2.39.64-3,2.92-3,10,.1,19.95,0,29.93,0Z" transform="translate(-15.64 -137.02)"/><path class="cls-3" d="M437.11,294.37q-23.42,0-46.84,0c-10,0-13.82-3.73-15-13.73-.79-6.92-.32-13.85-.61-20.77-.22-5.39-.49-10.78-.72-16.18-.08-1.94,3.22-5.68,5.1-5.68s1.17,1.42,1.22,2.34c.59,11.38.66,22.78.67,34.17a28.17,28.17,0,0,0,.57,7.7c.8,2.88,2.52,4.42,5.46,4.58,1.64.09,3.29.14,4.93.14q46.83,0,93.66,0c2.58,0,4.24.19,4.18,3.49-.05,3-.88,4.08-4.06,4.05C469.5,294.28,453.3,294.37,437.11,294.37Z" transform="translate(-15.64 -137.02)"/><path class="cls-3" d="M319,272.31c0,2.35-.12,4.7,0,7,.43,7,6.41,10,12.51,6.27,2.88-1.77,4.69-4.55,6.68-7.15,2.42-3.16,4.59-6.55,7.56-9.25,5-4.54,10.3-4.18,14.72.9,5.78,6.64,6.06,16.58.83,22.3-2.49,2.71-5.26,3.25-8.58,2.23-4-1.24-7.35-3.63-10.62-6.11-1.39-1.05-2.09-1.1-3.35.37-4.18,4.9-9.67,6.31-15.89,5.25-5.66-1-9.09-5.15-10-12-.75-5.84-.52-11.72-.69-17.59-.21-6.92-.51-13.84-.81-20.76-.09-1.92,3.7-6.1,5.56-6,1,0,1,.82,1.1,1.48.15,1.75.29,3.51.3,5.27,0,9.27,0,18.54,0,27.81Zm40.18,9.58a10.89,10.89,0,0,0-3-5.83c-1.38-1.5-2.79-2.95-5.12-1.78a15.16,15.16,0,0,0-6.19,6.47c-.08.15.22.64.46.83,2.78,2.31,5.5,4.78,9.28,5.29C357.65,287.28,359.25,285.72,359.19,281.89Z" transform="translate(-15.64 -137.02)"/><path class="cls-3" d="M286,294.3c-6.91.8-12.4-1.13-15.32-7.88-.7-1.61-1.59-1.08-2.41-.37-5.22,4.47-11,2.9-16.69,1.53-3.46-.83-5.16-3-5.38-6.82-.39-6.51,2.33-11.05,7.79-14.22l.31-.17c4.49-2.63,10.4-3.43,12.12-9.66.25-.91,1.18-2.33,2.56-1.93s1.11,1.9,1.34,3c1.44,7,2.81,14,4.37,21,1.37,6.12,3.86,8,10,8,1.88,0,3.76,0,5.63,0,5.06-.18,6.68-2,6.29-7.08-.23-2.95-1.37-5.69-2.17-8.5-.39-1.38,2.73-6.76,4.08-7,1.06-.19,1.42.75,1.73,1.43,2.91,6.37,4.14,13,2,19.8-1.67,5.3-5.46,8.36-11.07,8.89C289.42,294.44,287.65,294.3,286,294.3Zm-23.2-13.45c6.17,0,6.17,0,4.82-5.84-.32-1.37-.58-2.75-.88-4.13-.21-1-.49-1.92-1.82-1.45-3.86,1.36-7.94,2.29-11.2,4.92-2.53,2-2,4.51,1.08,5.51A26,26,0,0,0,262.76,280.85Z" transform="translate(-15.64 -137.02)"/><path class="cls-3" d="M294.78,257.58c-.92,0-5.79-4.72-5.85-5.3s4.61-5.28,5.34-5.32,5.75,4.81,5.42,5.2C298.08,254.1,296.31,255.92,294.78,257.58Z" transform="translate(-15.64 -137.02)"/></svg>