<svg id="Layer_1" data-name="Layer 1" xmlns="http://www.w3.org/2000/svg" viewBox="0 0 513 513"><defs><style>.cls-1{fill:#fff;}</style></defs><path class="cls-1" d="M.81,246.5c.85-1.21.18-2.77,1-4A40.71,40.71,0,0,1,.81,253Z" transform="translate(-0.81 -3.89)"/><path class="cls-1" d="M243.87,4.32a.64.64,0,0,0,0-.43h6.45A16.7,16.7,0,0,1,243.87,4.32Z" transform="translate(-0.81 -3.89)"/><path class="cls-1" d="M271.2,3.89a.64.64,0,0,0,.05.43,16.76,16.76,0,0,1-6.5-.43Z" transform="translate(-0.81 -3.89)"/><path class="cls-1" d="M243.91,516.89a.93.93,0,0,0,0-.47,17.37,17.37,0,0,1,6.46.47Z" transform="translate(-0.81 -3.89)"/><path class="cls-1" d="M271.22,516.42a.93.93,0,0,0,0,.47h-6.45A17.42,17.42,0,0,1,271.22,516.42Z" transform="translate(-0.81 -3.89)"/><path class="cls-1" d="M513.39,246.45a246.5,246.5,0,0,0-24.59-97A256.56,256.56,0,0,0,321.85,12a241.83,241.83,0,0,0-43.19-7.22c-2.47-.19-4.94-.33-7.41-.49-.13-.05-.18-.11-.2-.17h-.19c-2-.16-4.09.32-6.11-.26H250.36c-2,.53-4.09.13-6.13.26a.85.85,0,0,0-.16,0s0,0,0,0a.26.26,0,0,1-.19.12,251.32,251.32,0,0,0-79.78,17.15A256.78,256.78,0,0,0,9.44,195.39a242,242,0,0,0-7.22,41.94c-.14,1.73-.31,3.45-.46,5.18-.44,1-.11,2.06-.22,3.09,0,.33,0,.7-.27.85A59,59,0,0,1,.81,253v16.87a2,2,0,0,1,.3,1.26,37.9,37.9,0,0,1,.57,5.1q6.63,97,75.16,165.92c35.1,35.21,77.31,57.91,125.85,68.73a268.42,268.42,0,0,0,41.21,5.59.29.29,0,0,1,.17.21h.18c2,.16,4.1-.32,6.11.26h14.39c2-.53,4.1-.13,6.15-.26a192.15,192.15,0,0,0,35.64-3.93,254.26,254.26,0,0,0,74.33-26.83,257,257,0,0,0,106.3-109.82,244.51,244.51,0,0,0,17.47-44.73c5.22-18.8,9.13-37.82,8.91-57.46l-.16,0a14.83,14.83,0,0,1,.42-6V253A17.79,17.79,0,0,1,513.39,246.45ZM405.84,292.76a12.32,12.32,0,0,1-12.1,8.83q-46,0-92,0c-2.83,0-2.83,0-2.83,2.91q0,45.76,0,91.52c0,6-3.17,10.6-8.44,12.42a13.93,13.93,0,0,1-4.62.74c-18.85,0-37.7,0-56.55,0-7.77,0-13.07-5.38-13.07-13.13q0-45.76,0-91.52c0-2.92,0-2.92-2.81-2.92h-91c-8.65,0-13.64-5-13.65-13.72q0-19.85,0-39.69c0-5.45-.06-10.91,0-16.37.1-6.1,3.47-10.64,8.91-12.31a15.68,15.68,0,0,1,4.67-.46h90.77c3.12,0,3.12,0,3.12-3.17q0-45.51,0-91a13.35,13.35,0,0,1,1.48-6.7,12.08,12.08,0,0,1,11.1-6.64c8.76,0,17.53,0,26.29,0q15.49,0,31,0a12.3,12.3,0,0,1,10.59,5.38,12.53,12.53,0,0,1,2.25,7.47q0,12.15,0,24.3v67.71c0,3-.27,2.68,2.61,2.68h91.27a14,14,0,0,1,5.38.7c4.68,1.89,7.48,5.27,8.09,10.34a24.51,24.51,0,0,1,.14,3q0,27.28,0,54.56A17.28,17.28,0,0,1,405.84,292.76Z" transform="translate(-0.81 -3.89)"/></svg>